<svg width="20" height="20" viewBox="0 0 20 20" fill="none" xmlns="http://www.w3.org/2000/svg">
<path fill-rule="evenodd" clip-rule="evenodd" d="M4.13909 7.20956C4.1888 7.1497 4.24945 7.10054 4.31758 7.06488C4.38571 7.02922 4.45997 7.00777 4.53614 7.00175C4.6123 6.99573 4.68886 7.00527 4.76146 7.0298C4.83405 7.05434 4.90124 7.0934 4.9592 7.14476L10.007 11.6099L15.0547 7.14476C15.1724 7.04725 15.3222 7.00081 15.4725 7.01523C15.6227 7.02966 15.7617 7.10383 15.8599 7.22206C15.9582 7.3403 16.008 7.49333 15.9989 7.64881C15.9899 7.80429 15.9226 7.95004 15.8113 8.05523L10.3852 12.8556C10.2799 12.9488 10.1457 13 10.007 13C9.86822 13 9.73405 12.9488 9.62869 12.8556L4.20266 8.05523C4.08575 7.95164 4.01347 7.80438 4.0017 7.64581C3.98993 7.48724 4.03962 7.33034 4.13987 7.20956H4.13909Z" fill="#1D1D1F"/>
</svg>
