<svg width="20" height="20" viewBox="0 0 20 20" fill="none" xmlns="http://www.w3.org/2000/svg">
<path d="M10.8335 3.33341H5.00016C4.55814 3.33341 4.13421 3.50901 3.82165 3.82157C3.50909 4.13413 3.3335 4.55805 3.3335 5.00008V15.0001C3.3335 15.4421 3.50909 15.866 3.82165 16.1786C4.13421 16.4912 4.55814 16.6667 5.00016 16.6667H10.8335M14.1668 3.33341H15.0002C15.4422 3.33341 15.8661 3.50901 16.1787 3.82157C16.4912 4.13413 16.6668 4.55805 16.6668 5.00008V5.83341M16.6668 14.1667V15.0001C16.6668 15.4421 16.4912 15.866 16.1787 16.1786C15.8661 16.4912 15.4422 16.6667 15.0002 16.6667H14.1668M16.6668 9.16675V10.8334M10.0002 1.66675V18.3334" stroke="#1D1D1F" stroke-linecap="round" stroke-linejoin="round"/>
</svg>
