<svg width="20" height="20" viewBox="0 0 20 20" fill="none" xmlns="http://www.w3.org/2000/svg">
<path d="M8.75 13.75C8.75 13.8329 8.71708 13.9124 8.65847 13.971C8.59987 14.0296 8.52038 14.0625 8.4375 14.0625H6.25C6.16712 14.0625 6.08763 14.0296 6.02903 13.971C5.97042 13.9124 5.9375 13.8329 5.9375 13.75C5.9375 13.6671 5.97042 13.5876 6.02903 13.529C6.08763 13.4704 6.16712 13.4375 6.25 13.4375H8.4375C8.52038 13.4375 8.59987 13.4704 8.65847 13.529C8.71708 13.5876 8.75 13.6671 8.75 13.75ZM13.75 13.4375H11.5625C11.4796 13.4375 11.4001 13.4704 11.3415 13.529C11.2829 13.5876 11.25 13.6671 11.25 13.75C11.25 13.8329 11.2829 13.9124 11.3415 13.971C11.4001 14.0296 11.4796 14.0625 11.5625 14.0625H13.75C13.8329 14.0625 13.9124 14.0296 13.971 13.971C14.0296 13.9124 14.0625 13.8329 14.0625 13.75C14.0625 13.6671 14.0296 13.5876 13.971 13.529C13.9124 13.4704 13.8329 13.4375 13.75 13.4375ZM19.0625 16.875C19.0625 16.9579 19.0296 17.0374 18.971 17.096C18.9124 17.1546 18.8329 17.1875 18.75 17.1875H1.25C1.16712 17.1875 1.08763 17.1546 1.02903 17.096C0.970424 17.0374 0.9375 16.9579 0.9375 16.875C0.9375 16.7921 0.970424 16.7126 1.02903 16.654C1.08763 16.5954 1.16712 16.5625 1.25 16.5625H2.8125V6.875C2.8125 6.81697 2.82866 6.76008 2.85917 6.71071C2.88968 6.66134 2.93334 6.62145 2.98525 6.59549C3.03715 6.56954 3.09526 6.55855 3.15306 6.56376C3.21086 6.56897 3.26607 6.59018 3.3125 6.625L7.8125 10V6.875C7.8125 6.81697 7.82866 6.76008 7.85917 6.71071C7.88968 6.66134 7.93334 6.62145 7.98525 6.59549C8.03715 6.56954 8.09526 6.55855 8.15306 6.56376C8.21086 6.56897 8.26607 6.59018 8.3125 6.625L11.7609 9.21172L12.7391 2.36719C12.772 2.14422 12.8837 1.94044 13.054 1.7928C13.2242 1.64516 13.4418 1.56345 13.6672 1.5625H15.0828C15.3082 1.56345 15.5258 1.64516 15.696 1.7928C15.8663 1.94044 15.978 2.14422 16.0109 2.36719L17.1828 10.5805C17.184 10.5953 17.184 10.6102 17.1828 10.625V16.5625H18.7453C18.7867 16.5619 18.8279 16.5695 18.8663 16.5849C18.9048 16.6004 18.9398 16.6233 18.9693 16.6524C18.9988 16.6814 19.0223 16.7161 19.0383 16.7543C19.0543 16.7925 19.0625 16.8336 19.0625 16.875ZM12.3312 9.63906L13.2289 10.3125H16.5148L15.3906 2.45547C15.3798 2.38052 15.3422 2.31205 15.2847 2.26276C15.2273 2.21347 15.1538 2.18673 15.0781 2.1875H13.6672C13.5915 2.18673 13.5181 2.21347 13.4606 2.26276C13.4031 2.31205 13.3655 2.38052 13.3547 2.45547L12.3312 9.63906ZM3.4375 16.5625H16.5625V10.9375H13.125C13.0574 10.9375 12.9916 10.9156 12.9375 10.875L8.4375 7.5V10.625C8.4375 10.683 8.42134 10.7399 8.39083 10.7893C8.36032 10.8387 8.31666 10.8786 8.26475 10.9045C8.21285 10.9305 8.15474 10.9414 8.09694 10.9362C8.03914 10.931 7.98393 10.9098 7.9375 10.875L3.4375 7.5V16.5625Z" fill="black"/>
</svg>
