<svg width="20" height="20" viewBox="0 0 20 20" fill="none" xmlns="http://www.w3.org/2000/svg">
<path d="M3.3335 3.33423H16.6668V15.0009C16.6668 15.4429 16.4912 15.8668 16.1787 16.1794C15.8661 16.492 15.4422 16.6676 15.0002 16.6676H5.00016C4.55814 16.6676 4.13421 16.492 3.82165 16.1794C3.50909 15.8668 3.3335 15.4429 3.3335 15.0009V3.33423Z" stroke="#1D1D1F" stroke-linecap="round" stroke-linejoin="round"/>
<path d="M10 13.3335H10.0083V13.3418H10V13.3335Z" stroke="#1D1D1F" stroke-width="1.5" stroke-linejoin="round"/>
<path d="M8.82178 6.32184C9.14678 5.99684 9.57178 5.83434 9.99678 5.83351C10.2163 5.8327 10.4337 5.87545 10.6365 5.95928C10.8394 6.0431 11.0236 6.16633 11.1784 6.32184C11.5034 6.64684 11.6668 7.07351 11.6668 7.50017C11.6672 7.71909 11.6242 7.93593 11.5404 8.13817C11.4566 8.34041 11.3336 8.52405 11.1784 8.67851C11.0235 8.83394 10.8393 8.95713 10.6365 9.04094C10.4337 9.12476 10.2162 9.16755 9.99678 9.16684L10.0001 10.0002" stroke="#1D1D1F" stroke-linecap="round" stroke-linejoin="round"/>
</svg>
