<svg width="20" height="20" viewBox="0 0 20 20" fill="none" xmlns="http://www.w3.org/2000/svg">
<path d="M16.4135 3.37423L6.23767 1.57735C6.1164 1.55588 5.99209 1.5585 5.87183 1.58509C5.75158 1.61167 5.63774 1.66168 5.53682 1.73228C5.4359 1.80287 5.34988 1.89265 5.28367 1.9965C5.21746 2.10035 5.17237 2.21623 5.15095 2.33751L2.82674 15.5406C2.78359 15.7854 2.83943 16.0374 2.98197 16.241C3.12452 16.4446 3.34211 16.5833 3.58689 16.6266L13.7635 18.4234C13.8178 18.4334 13.873 18.4384 13.9283 18.4383C14.1484 18.4378 14.3613 18.3598 14.5297 18.2182C14.6981 18.0765 14.8112 17.88 14.8494 17.6633L17.1736 4.46017C17.2168 4.21537 17.1609 3.96345 17.0184 3.75981C16.8758 3.55617 16.6582 3.41748 16.4135 3.37423ZM16.558 4.35157L14.2338 17.5547C14.2195 17.6363 14.1733 17.7089 14.1055 17.7566C14.0377 17.8042 13.9537 17.8229 13.872 17.8086L3.69549 16.0117C3.61399 15.9972 3.54157 15.951 3.49412 15.8832C3.44666 15.8154 3.42805 15.7315 3.44236 15.65L5.76658 2.44689C5.78088 2.36525 5.82702 2.29264 5.89485 2.24502C5.96269 2.1974 6.04666 2.17868 6.1283 2.19298L16.3049 3.98985C16.3864 4.00433 16.4588 4.05055 16.5062 4.11837C16.5537 4.18618 16.5723 4.27005 16.558 4.35157ZM14.3861 5.87267C14.3733 5.94482 14.3355 6.01017 14.2794 6.0573C14.2233 6.10442 14.1524 6.13033 14.0791 6.13048C14.0608 6.13047 14.0425 6.1289 14.0244 6.12579L7.54002 4.98048C7.45838 4.96608 7.38581 4.91984 7.33826 4.85193C7.29072 4.78402 7.2721 4.70001 7.2865 4.61837C7.3009 4.53673 7.34714 4.46416 7.41505 4.41662C7.48296 4.36907 7.56697 4.35045 7.64861 4.36485L14.133 5.51017C14.1734 5.51733 14.212 5.53239 14.2466 5.55449C14.2813 5.57659 14.3112 5.6053 14.3347 5.63896C14.3582 5.67263 14.3748 5.71059 14.3836 5.7507C14.3925 5.7908 14.3933 5.83224 14.3861 5.87267ZM13.9533 8.33439C13.9406 8.40682 13.9028 8.47245 13.8465 8.51975C13.7902 8.56705 13.719 8.59298 13.6455 8.59298C13.6271 8.59306 13.6088 8.59123 13.5908 8.58751L7.10955 7.44298C7.06913 7.43585 7.0305 7.42083 6.99589 7.39877C6.96127 7.37671 6.93134 7.34805 6.9078 7.31443C6.88425 7.28081 6.86757 7.24287 6.85869 7.2028C6.8498 7.16272 6.8489 7.12129 6.85603 7.08087C6.86316 7.04045 6.87819 7.00183 6.90024 6.96721C6.9223 6.93259 6.95096 6.90266 6.98458 6.87912C7.01821 6.85558 7.05614 6.83889 7.09621 6.83001C7.13629 6.82113 7.17772 6.82022 7.21814 6.82735L13.7025 7.97267C13.7836 7.98769 13.8554 8.03413 13.9024 8.10188C13.9494 8.16964 13.9677 8.2532 13.9533 8.33439ZM10.2814 10.2242C10.2686 10.2965 10.2307 10.362 10.1744 10.4091C10.1181 10.4563 10.047 10.4821 9.97361 10.482C9.95528 10.482 9.93699 10.4804 9.91892 10.4774L6.67752 9.9047C6.63564 9.89924 6.59531 9.88536 6.55895 9.86388C6.52259 9.8424 6.49096 9.81378 6.46598 9.77973C6.44099 9.74569 6.42316 9.70694 6.41356 9.66582C6.40397 9.62469 6.40281 9.58205 6.41015 9.54046C6.4175 9.49888 6.4332 9.45922 6.4563 9.42387C6.4794 9.38852 6.50942 9.35822 6.54456 9.33479C6.5797 9.31137 6.61922 9.29531 6.66073 9.28759C6.70225 9.27986 6.7449 9.28064 6.78611 9.28986L10.0275 9.86173C10.1087 9.87674 10.1807 9.9233 10.2277 9.99123C10.2747 10.0592 10.2929 10.1429 10.2783 10.2242H10.2814Z" fill="black"/>
</svg>
