<svg width="48" height="48" viewBox="0 0 48 48" fill="none" xmlns="http://www.w3.org/2000/svg">
<path d="M26.9582 19.7658C23.7062 18.5578 21.9342 17.6318 21.9342 16.1598C21.9342 14.9158 22.9562 14.2058 24.7802 14.2058C28.1142 14.2058 31.5382 15.4898 33.8962 16.6458L35.2282 8.42382C33.3582 7.53182 29.5342 6.06982 24.2482 6.06982C20.5082 6.06982 17.3982 7.04782 15.1762 8.87182C12.8662 10.7798 11.6622 13.5398 11.6622 16.8718C11.6622 22.9178 15.3562 25.4958 21.3562 27.6778C25.2282 29.0538 26.5142 30.0338 26.5142 31.5458C26.5142 33.0098 25.2562 33.8558 22.9902 33.8558C20.1842 33.8558 15.5582 32.4778 12.5282 30.6998L11.1802 39.0138C13.7882 40.4778 18.5902 41.9898 23.5742 41.9898C27.5262 41.9898 30.8222 41.0558 33.0442 39.2778C35.5342 37.3238 36.8242 34.4338 36.8242 30.6998C36.8242 24.5178 33.0462 21.9398 26.9542 19.7638H26.9582V19.7658Z" fill="#1D1D1F"/>
</svg>
